<svg width="513" height="44" viewBox="0 0 513 44" fill="none" xmlns="http://www.w3.org/2000/svg">
<path d="M19.4685 28.7959H7.60327L4.74683 38H0.230225L11.7048 2.45312H15.489L26.7683 38H22.2761L19.4685 28.7959ZM8.82397 24.8652H18.2722L13.5847 9.43555L8.82397 24.8652ZM35.738 0.5H49.239V34.0938H57.8572V38H35.738V34.0938H44.7224V4.43066H35.738V0.5ZM68.2673 11.584H81.7683V34.0938H90.3865V38H68.2673V34.0938H77.2517V15.5146H68.2673V11.584ZM76.6658 4.65039C76.6658 4.25977 76.7227 3.89355 76.8367 3.55176C76.9669 3.20996 77.1622 2.91699 77.4226 2.67285C77.6342 2.46126 77.9028 2.2985 78.2283 2.18457C78.5701 2.05436 78.9526 1.98926 79.3757 1.98926C79.7989 1.98926 80.1733 2.05436 80.4988 2.18457C80.8243 2.2985 81.0929 2.46126 81.3044 2.67285C81.5649 2.90072 81.7602 3.18555 81.8904 3.52734C82.0206 3.86914 82.0857 4.24349 82.0857 4.65039C82.0857 5.38281 81.8578 5.99316 81.4021 6.48145C80.9464 6.96973 80.2709 7.21387 79.3757 7.21387C78.4643 7.21387 77.7807 6.96973 77.325 6.48145C76.8855 5.99316 76.6658 5.38281 76.6658 4.65039ZM117.642 30.9932C117.642 30.4561 117.537 29.9759 117.325 29.5527C117.113 29.1133 116.755 28.7145 116.251 28.3564C115.746 27.9984 115.079 27.6729 114.249 27.3799C113.419 27.0706 112.385 26.7939 111.148 26.5498C109.635 26.2406 108.251 25.8662 106.998 25.4268C105.761 24.9873 104.703 24.4583 103.824 23.8398C102.929 23.2376 102.237 22.5296 101.749 21.7158C101.26 20.8857 101.016 19.9255 101.016 18.835C101.016 17.7607 101.269 16.7598 101.773 15.832C102.278 14.888 102.986 14.0661 103.897 13.3662C104.809 12.6663 105.891 12.113 107.144 11.7061C108.414 11.2992 109.805 11.0957 111.319 11.0957C112.947 11.0957 114.412 11.3073 115.714 11.7305C117.016 12.1536 118.122 12.7396 119.034 13.4883C119.945 14.237 120.645 15.1159 121.134 16.125C121.638 17.1178 121.89 18.1921 121.89 19.3477H117.374C117.374 18.778 117.227 18.2246 116.934 17.6875C116.641 17.1341 116.234 16.6458 115.714 16.2227C115.193 15.7995 114.558 15.4577 113.809 15.1973C113.077 14.9368 112.247 14.8066 111.319 14.8066C110.359 14.8066 109.512 14.9124 108.78 15.124C108.064 15.3356 107.47 15.6204 106.998 15.9785C106.51 16.3366 106.143 16.7516 105.899 17.2236C105.655 17.6956 105.533 18.1839 105.533 18.6885C105.533 19.2093 105.631 19.6732 105.826 20.0801C106.021 20.487 106.363 20.8532 106.851 21.1787C107.323 21.5042 107.958 21.7972 108.756 22.0576C109.569 22.318 110.595 22.5703 111.832 22.8145C113.459 23.1562 114.916 23.555 116.202 24.0107C117.488 24.4502 118.57 24.9792 119.449 25.5977C120.328 26.2324 120.995 26.9648 121.451 27.7949C121.923 28.625 122.159 29.5853 122.159 30.6758C122.159 31.8477 121.89 32.9137 121.353 33.874C120.832 34.8343 120.1 35.6562 119.156 36.3398C118.212 37.0234 117.081 37.5524 115.762 37.9268C114.444 38.3011 113.004 38.4883 111.441 38.4883C109.651 38.4883 108.056 38.2523 106.656 37.7803C105.256 37.292 104.076 36.6491 103.116 35.8516C102.139 35.0703 101.391 34.1589 100.87 33.1172C100.365 32.0755 100.113 30.9932 100.113 29.8701H104.63C104.695 30.7979 104.939 31.5791 105.362 32.2139C105.802 32.8486 106.347 33.3613 106.998 33.752C107.633 34.1426 108.341 34.4193 109.122 34.582C109.903 34.7448 110.676 34.8262 111.441 34.8262C112.646 34.8262 113.695 34.6878 114.591 34.4111C115.486 34.1182 116.186 33.7194 116.69 33.2148C116.999 32.9056 117.235 32.5638 117.398 32.1895C117.561 31.8151 117.642 31.4163 117.642 30.9932ZM131.348 24.5479C131.348 22.6436 131.625 20.8776 132.178 19.25C132.732 17.6061 133.529 16.182 134.571 14.9775C135.596 13.7731 136.85 12.8291 138.331 12.1455C139.812 11.4456 141.48 11.0957 143.336 11.0957C145.207 11.0957 146.884 11.4456 148.365 12.1455C149.862 12.8291 151.132 13.7731 152.174 14.9775C153.199 16.182 153.988 17.6061 154.542 19.25C155.095 20.8776 155.372 22.6436 155.372 24.5479V25.085C155.372 26.9893 155.095 28.7552 154.542 30.3828C153.988 32.0104 153.199 33.4264 152.174 34.6309C151.132 35.8353 149.871 36.7793 148.389 37.4629C146.908 38.1465 145.24 38.4883 143.385 38.4883C141.513 38.4883 139.828 38.1465 138.331 37.4629C136.85 36.7793 135.596 35.8353 134.571 34.6309C133.529 33.4264 132.732 32.0104 132.178 30.3828C131.625 28.7552 131.348 26.9893 131.348 25.085V24.5479ZM135.865 25.085C135.865 26.387 136.02 27.6322 136.329 28.8203C136.638 29.9922 137.11 31.0257 137.745 31.9209C138.363 32.8161 139.145 33.5241 140.089 34.0449C141.033 34.5658 142.131 34.8262 143.385 34.8262C144.622 34.8262 145.704 34.5658 146.632 34.0449C147.576 33.5241 148.365 32.8161 149 31.9209C149.618 31.0257 150.082 29.9922 150.391 28.8203C150.701 27.6322 150.855 26.387 150.855 25.085V24.5479C150.855 23.262 150.692 22.0332 150.367 20.8613C150.058 19.6732 149.594 18.6315 148.975 17.7363C148.341 16.8411 147.551 16.1331 146.607 15.6123C145.679 15.0752 144.589 14.8066 143.336 14.8066C142.082 14.8066 140.992 15.0752 140.064 15.6123C139.136 16.1331 138.363 16.8411 137.745 17.7363C137.11 18.6315 136.638 19.6732 136.329 20.8613C136.02 22.0332 135.865 23.262 135.865 24.5479V25.085ZM165.147 38V11.584H169.2L169.517 15.4902C169.908 14.9368 170.331 14.4323 170.787 13.9766C171.259 13.5046 171.755 13.0977 172.276 12.7559C173.057 12.235 173.904 11.8363 174.815 11.5596C175.743 11.2666 176.719 11.112 177.745 11.0957C179.128 11.0957 180.382 11.291 181.505 11.6816C182.644 12.0723 183.612 12.6826 184.41 13.5127C185.207 14.3428 185.818 15.4007 186.241 16.6865C186.68 17.9561 186.9 19.4697 186.9 21.2275V38H182.384V21.3252C182.384 20.1533 182.253 19.1605 181.993 18.3467C181.733 17.5329 181.35 16.8737 180.845 16.3691C180.325 15.8646 179.69 15.4984 178.941 15.2705C178.209 15.0426 177.362 14.9287 176.402 14.9287C175.572 14.9287 174.799 15.0508 174.083 15.2949C173.367 15.5228 172.707 15.8402 172.105 16.2471C171.617 16.6051 171.161 17.0202 170.738 17.4922C170.331 17.9642 169.973 18.485 169.664 19.0547V38H165.147ZM512.071 43.2979H489.805V38H512.071V43.2979Z" fill="black"/>
<path d="M196.48 38V2.45312H205.684C207.328 2.45312 208.866 2.65658 210.299 3.06348C211.731 3.4541 213.033 4.01562 214.205 4.74805C215.23 5.35026 216.142 6.09082 216.939 6.96973C217.753 7.83236 218.461 8.77637 219.063 9.80176C219.763 11.055 220.3 12.4385 220.675 13.9521C221.065 15.4658 221.26 17.0771 221.26 18.7861V21.7158C221.26 23.3597 221.081 24.9141 220.723 26.3789C220.365 27.8438 219.861 29.1865 219.21 30.4072C218.591 31.4977 217.867 32.5068 217.037 33.4346C216.207 34.346 215.295 35.111 214.302 35.7295C213.147 36.4619 211.869 37.0234 210.469 37.4141C209.086 37.8047 207.605 38 206.026 38H196.48ZM203.389 8.01953V32.4824H206.026C206.872 32.4824 207.662 32.3766 208.394 32.165C209.127 31.9535 209.794 31.6442 210.396 31.2373C211.015 30.8141 211.568 30.277 212.056 29.626C212.561 28.9587 212.992 28.1855 213.35 27.3066C213.643 26.5417 213.863 25.6953 214.01 24.7676C214.172 23.8236 214.254 22.8063 214.254 21.7158V18.7373C214.254 17.7119 214.172 16.7435 214.01 15.832C213.863 14.9043 213.643 14.0579 213.35 13.293C212.992 12.3815 212.52 11.5677 211.934 10.8516C211.365 10.1354 210.697 9.54948 209.932 9.09375C209.346 8.75195 208.695 8.49154 207.979 8.3125C207.279 8.11719 206.514 8.01953 205.684 8.01953H203.389ZM242.218 38.4883C240.183 38.4883 238.336 38.1546 236.676 37.4873C235.015 36.82 233.591 35.9085 232.403 34.7529C231.215 33.6136 230.295 32.2708 229.644 30.7246C229.01 29.1621 228.692 27.4938 228.692 25.7197V24.7432C228.692 22.7249 229.01 20.8857 229.644 19.2256C230.279 17.5492 231.166 16.1087 232.305 14.9043C233.445 13.6999 234.796 12.764 236.358 12.0967C237.921 11.4294 239.622 11.0957 241.461 11.0957C243.365 11.0957 245.058 11.4131 246.539 12.0479C248.036 12.6663 249.306 13.5452 250.347 14.6846C251.373 15.8239 252.154 17.1992 252.691 18.8105C253.228 20.4056 253.497 22.1715 253.497 24.1084V26.9893H235.577V27.0625C235.805 28.1204 236.098 28.9749 236.456 29.626C236.814 30.2607 237.294 30.8385 237.896 31.3594C238.515 31.8965 239.223 32.3115 240.02 32.6045C240.818 32.8975 241.689 33.0439 242.633 33.0439C243.967 33.0439 245.261 32.7917 246.514 32.2871C247.768 31.7826 248.785 31.0257 249.566 30.0166L252.96 33.6787C252.097 34.8994 250.73 36.0062 248.858 36.999C246.986 37.9919 244.773 38.4883 242.218 38.4883ZM241.412 16.5889C240.647 16.5889 239.947 16.7272 239.312 17.0039C238.677 17.2643 238.124 17.6468 237.652 18.1514C237.164 18.6559 236.757 19.2581 236.431 19.958C236.106 20.6579 235.862 21.4391 235.699 22.3018H246.832V21.7646C246.832 21.0485 246.702 20.373 246.441 19.7383C246.181 19.1035 245.823 18.5501 245.367 18.0781C244.911 17.6224 244.35 17.2643 243.682 17.0039C243.031 16.7272 242.274 16.5889 241.412 16.5889ZM263.345 0.5H278.116V32.4824H285.684V38H263.345V32.4824H271.256V6.04199H263.345V0.5ZM302.857 38L292.774 11.584H299.854L305.665 30.2119L306.031 32.0674L306.397 30.2119L312.183 11.584H319.263L309.229 38H302.857ZM339.805 38.4883C337.771 38.4883 335.924 38.1546 334.263 37.4873C332.603 36.82 331.179 35.9085 329.991 34.7529C328.803 33.6136 327.883 32.2708 327.232 30.7246C326.597 29.1621 326.28 27.4938 326.28 25.7197V24.7432C326.28 22.7249 326.597 20.8857 327.232 19.2256C327.867 17.5492 328.754 16.1087 329.893 14.9043C331.033 13.6999 332.384 12.764 333.946 12.0967C335.509 11.4294 337.209 11.0957 339.049 11.0957C340.953 11.0957 342.646 11.4131 344.127 12.0479C345.624 12.6663 346.894 13.5452 347.935 14.6846C348.961 15.8239 349.742 17.1992 350.279 18.8105C350.816 20.4056 351.085 22.1715 351.085 24.1084V26.9893H333.165V27.0625C333.393 28.1204 333.686 28.9749 334.044 29.626C334.402 30.2607 334.882 30.8385 335.484 31.3594C336.103 31.8965 336.811 32.3115 337.608 32.6045C338.406 32.8975 339.276 33.0439 340.22 33.0439C341.555 33.0439 342.849 32.7917 344.102 32.2871C345.356 31.7826 346.373 31.0257 347.154 30.0166L350.548 33.6787C349.685 34.8994 348.318 36.0062 346.446 36.999C344.574 37.9919 342.361 38.4883 339.805 38.4883ZM339 16.5889C338.235 16.5889 337.535 16.7272 336.9 17.0039C336.265 17.2643 335.712 17.6468 335.24 18.1514C334.752 18.6559 334.345 19.2581 334.019 19.958C333.694 20.6579 333.45 21.4391 333.287 22.3018H344.42V21.7646C344.42 21.0485 344.289 20.373 344.029 19.7383C343.769 19.1035 343.411 18.5501 342.955 18.0781C342.499 17.6224 341.938 17.2643 341.27 17.0039C340.619 16.7272 339.862 16.5889 339 16.5889ZM371.212 33.0684C371.879 33.0684 372.514 32.9707 373.116 32.7754C373.718 32.5801 374.247 32.3034 374.703 31.9453C375.159 31.5872 375.509 31.1559 375.753 30.6514C376.013 30.1468 376.127 29.5853 376.094 28.9668H382.491C382.524 30.334 382.239 31.6035 381.636 32.7754C381.051 33.9473 380.245 34.9564 379.219 35.8027C378.194 36.6491 376.998 37.3164 375.631 37.8047C374.28 38.2767 372.847 38.5127 371.334 38.5127C369.283 38.5127 367.484 38.1709 365.938 37.4873C364.392 36.7874 363.106 35.8353 362.081 34.6309C361.039 33.4264 360.25 32.0186 359.713 30.4072C359.192 28.7796 358.931 27.0381 358.931 25.1826V24.4502C358.931 22.5947 359.192 20.8613 359.713 19.25C360.233 17.6224 361.015 16.2064 362.056 15.002C363.098 13.7975 364.384 12.8454 365.914 12.1455C367.46 11.4456 369.25 11.0957 371.285 11.0957C372.913 11.0957 374.418 11.3398 375.802 11.8281C377.185 12.3164 378.381 13 379.39 13.8789C380.383 14.7741 381.156 15.8564 381.71 17.126C382.263 18.3792 382.524 19.7871 382.491 21.3496H376.094C376.127 20.6986 376.029 20.0801 375.802 19.4941C375.574 18.9082 375.24 18.4036 374.801 17.9805C374.361 17.5573 373.832 17.2236 373.214 16.9795C372.595 16.7191 371.92 16.5889 371.187 16.5889C370.113 16.5889 369.226 16.8086 368.526 17.248C367.826 17.6875 367.273 18.2734 366.866 19.0059C366.443 19.7383 366.142 20.5765 365.963 21.5205C365.8 22.4645 365.719 23.4411 365.719 24.4502V25.1826C365.719 26.208 365.8 27.2008 365.963 28.1611C366.125 29.1051 366.418 29.9352 366.842 30.6514C367.248 31.3838 367.802 31.9697 368.502 32.4092C369.218 32.8486 370.121 33.0684 371.212 33.0684ZM398.834 15.2217C399.176 14.7171 399.55 14.2533 399.957 13.8301C400.38 13.3906 400.819 13.0081 401.275 12.6826C401.975 12.1781 402.748 11.7874 403.594 11.5107C404.441 11.234 405.336 11.0957 406.28 11.0957C407.663 11.0957 408.933 11.3073 410.089 11.7305C411.244 12.1374 412.237 12.7803 413.067 13.6592C413.897 14.5381 414.54 15.6693 414.996 17.0527C415.468 18.4199 415.704 20.0719 415.704 22.0088V38H408.917V21.96C408.917 21.016 408.795 20.2021 408.551 19.5186C408.323 18.835 407.989 18.2816 407.55 17.8584C407.11 17.4352 406.581 17.126 405.963 16.9307C405.344 16.7191 404.644 16.6133 403.863 16.6133C403.261 16.6133 402.699 16.6702 402.178 16.7842C401.658 16.8981 401.186 17.069 400.762 17.2969C400.372 17.4922 400.014 17.7282 399.688 18.0049C399.379 18.2816 399.094 18.5908 398.834 18.9326V38H392.047V0.5H398.834V15.2217ZM426.383 11.584H440.762V32.4824H447.916V38H426.383V32.4824H433.902V17.126H426.383V11.584ZM433.414 4.82129C433.414 4.30046 433.503 3.82031 433.682 3.38086C433.878 2.92513 434.146 2.53451 434.488 2.20898C434.83 1.89974 435.237 1.6556 435.709 1.47656C436.197 1.29753 436.734 1.20801 437.32 1.20801C438.524 1.20801 439.477 1.5498 440.177 2.2334C440.893 2.90072 441.251 3.76335 441.251 4.82129C441.251 5.87923 440.893 6.75 440.177 7.43359C439.477 8.10091 438.524 8.43457 437.32 8.43457C436.734 8.43457 436.197 8.34505 435.709 8.16602C435.237 7.98698 434.83 7.7347 434.488 7.40918C434.146 7.09993 433.878 6.72559 433.682 6.28613C433.503 5.8304 433.414 5.34212 433.414 4.82129ZM456.177 24.5479C456.177 22.6273 456.454 20.8532 457.008 19.2256C457.561 17.5817 458.375 16.1576 459.449 14.9531C460.507 13.7487 461.801 12.8047 463.331 12.1211C464.877 11.4375 466.643 11.0957 468.629 11.0957C470.614 11.0957 472.38 11.4375 473.927 12.1211C475.473 12.8047 476.783 13.7487 477.857 14.9531C478.915 16.1576 479.721 17.5817 480.274 19.2256C480.828 20.8532 481.104 22.6273 481.104 24.5479V25.0605C481.104 26.9974 480.828 28.7878 480.274 30.4316C479.721 32.0592 478.915 33.4753 477.857 34.6797C476.799 35.8841 475.497 36.8281 473.951 37.5117C472.405 38.179 470.647 38.5127 468.677 38.5127C466.692 38.5127 464.918 38.179 463.355 37.5117C461.809 36.8281 460.507 35.8841 459.449 34.6797C458.375 33.4753 457.561 32.0592 457.008 30.4316C456.454 28.7878 456.177 26.9974 456.177 25.0605V24.5479ZM462.965 25.0605C462.965 26.1673 463.07 27.209 463.282 28.1855C463.494 29.1458 463.827 29.984 464.283 30.7002C464.739 31.4326 465.325 32.0104 466.041 32.4336C466.773 32.8568 467.652 33.0684 468.677 33.0684C469.67 33.0684 470.525 32.8568 471.241 32.4336C471.957 32.0104 472.543 31.4326 472.999 30.7002C473.438 29.984 473.764 29.1458 473.975 28.1855C474.187 27.209 474.293 26.1673 474.293 25.0605V24.5479C474.293 23.4736 474.187 22.4564 473.975 21.4961C473.764 20.5358 473.438 19.6895 472.999 18.957C472.543 18.2246 471.957 17.6468 471.241 17.2236C470.525 16.8005 469.654 16.5889 468.629 16.5889C467.62 16.5889 466.757 16.8005 466.041 17.2236C465.325 17.6468 464.739 18.2246 464.283 18.957C463.827 19.6895 463.494 20.5358 463.282 21.4961C463.07 22.4564 462.965 23.4736 462.965 24.5479V25.0605Z" fill="#0C5F86"/>
</svg>
