<svg width="513" height="44" viewBox="0 0 513 44" fill="none" xmlns="http://www.w3.org/2000/svg">
<path d="M19.5364 28.8867H7.67114L4.8147 38.0908H0.298096L11.7727 2.54395H15.5569L26.8362 38.0908H22.344L19.5364 28.8867ZM8.89185 24.9561H18.3401L13.6526 9.52637L8.89185 24.9561ZM35.8059 0.59082H49.3069V34.1846H57.925V38.0908H35.8059V34.1846H44.7903V4.52148H35.8059V0.59082ZM68.3352 11.6748H81.8362V34.1846H90.4543V38.0908H68.3352V34.1846H77.3196V15.6055H68.3352V11.6748ZM76.7336 4.74121C76.7336 4.35059 76.7906 3.98438 76.9045 3.64258C77.0347 3.30078 77.2301 3.00781 77.4905 2.76367C77.7021 2.55208 77.9706 2.38932 78.2961 2.27539C78.6379 2.14518 79.0204 2.08008 79.4436 2.08008C79.8668 2.08008 80.2411 2.14518 80.5667 2.27539C80.8922 2.38932 81.1607 2.55208 81.3723 2.76367C81.6327 2.99154 81.828 3.27637 81.9583 3.61816C82.0885 3.95996 82.1536 4.33431 82.1536 4.74121C82.1536 5.47363 81.9257 6.08398 81.47 6.57227C81.0142 7.06055 80.3388 7.30469 79.4436 7.30469C78.5321 7.30469 77.8486 7.06055 77.3928 6.57227C76.9534 6.08398 76.7336 5.47363 76.7336 4.74121ZM117.71 31.084C117.71 30.5469 117.604 30.0667 117.393 29.6436C117.181 29.2041 116.823 28.8053 116.319 28.4473C115.814 28.0892 115.147 27.7637 114.317 27.4707C113.487 27.1615 112.453 26.8848 111.216 26.6406C109.702 26.3314 108.319 25.957 107.066 25.5176C105.829 25.0781 104.771 24.5492 103.892 23.9307C102.997 23.3285 102.305 22.6204 101.817 21.8066C101.328 20.9766 101.084 20.0163 101.084 18.9258C101.084 17.8516 101.337 16.8506 101.841 15.9229C102.346 14.9788 103.054 14.1569 103.965 13.457C104.877 12.7572 105.959 12.2038 107.212 11.7969C108.482 11.39 109.873 11.1865 111.387 11.1865C113.015 11.1865 114.479 11.3981 115.781 11.8213C117.084 12.2445 118.19 12.8304 119.102 13.5791C120.013 14.3278 120.713 15.2067 121.201 16.2158C121.706 17.2087 121.958 18.2829 121.958 19.4385H117.442C117.442 18.8688 117.295 18.3154 117.002 17.7783C116.709 17.2249 116.302 16.7367 115.781 16.3135C115.261 15.8903 114.626 15.5485 113.877 15.2881C113.145 15.0277 112.315 14.8975 111.387 14.8975C110.427 14.8975 109.58 15.0033 108.848 15.2148C108.132 15.4264 107.538 15.7113 107.066 16.0693C106.577 16.4274 106.211 16.8424 105.967 17.3145C105.723 17.7865 105.601 18.2747 105.601 18.7793C105.601 19.3001 105.698 19.764 105.894 20.1709C106.089 20.5778 106.431 20.944 106.919 21.2695C107.391 21.5951 108.026 21.888 108.823 22.1484C109.637 22.4089 110.663 22.6611 111.9 22.9053C113.527 23.2471 114.984 23.6458 116.27 24.1016C117.556 24.541 118.638 25.07 119.517 25.6885C120.396 26.3232 121.063 27.0557 121.519 27.8857C121.991 28.7158 122.227 29.6761 122.227 30.7666C122.227 31.9385 121.958 33.0046 121.421 33.9648C120.9 34.9251 120.168 35.7471 119.224 36.4307C118.28 37.1143 117.149 37.6432 115.83 38.0176C114.512 38.3919 113.072 38.5791 111.509 38.5791C109.719 38.5791 108.124 38.3431 106.724 37.8711C105.324 37.3828 104.144 36.7399 103.184 35.9424C102.207 35.1611 101.459 34.2497 100.938 33.208C100.433 32.1663 100.181 31.084 100.181 29.9609H104.698C104.763 30.8887 105.007 31.6699 105.43 32.3047C105.869 32.9395 106.415 33.4521 107.066 33.8428C107.7 34.2334 108.408 34.5101 109.19 34.6729C109.971 34.8356 110.744 34.917 111.509 34.917C112.713 34.917 113.763 34.7786 114.658 34.502C115.554 34.209 116.253 33.8102 116.758 33.3057C117.067 32.9964 117.303 32.6546 117.466 32.2803C117.629 31.9059 117.71 31.5072 117.71 31.084ZM131.416 24.6387C131.416 22.7344 131.693 20.9684 132.246 19.3408C132.8 17.6969 133.597 16.2728 134.639 15.0684C135.664 13.8639 136.918 12.9199 138.399 12.2363C139.88 11.5365 141.548 11.1865 143.404 11.1865C145.275 11.1865 146.952 11.5365 148.433 12.2363C149.93 12.9199 151.2 13.8639 152.241 15.0684C153.267 16.2728 154.056 17.6969 154.61 19.3408C155.163 20.9684 155.44 22.7344 155.44 24.6387V25.1758C155.44 27.0801 155.163 28.846 154.61 30.4736C154.056 32.1012 153.267 33.5173 152.241 34.7217C151.2 35.9261 149.938 36.8701 148.457 37.5537C146.976 38.2373 145.308 38.5791 143.452 38.5791C141.581 38.5791 139.896 38.2373 138.399 37.5537C136.918 36.8701 135.664 35.9261 134.639 34.7217C133.597 33.5173 132.8 32.1012 132.246 30.4736C131.693 28.846 131.416 27.0801 131.416 25.1758V24.6387ZM135.933 25.1758C135.933 26.4779 136.087 27.723 136.397 28.9111C136.706 30.083 137.178 31.1165 137.813 32.0117C138.431 32.9069 139.212 33.6149 140.156 34.1357C141.101 34.6566 142.199 34.917 143.452 34.917C144.689 34.917 145.772 34.6566 146.699 34.1357C147.643 33.6149 148.433 32.9069 149.068 32.0117C149.686 31.1165 150.15 30.083 150.459 28.9111C150.768 27.723 150.923 26.4779 150.923 25.1758V24.6387C150.923 23.3529 150.76 22.124 150.435 20.9521C150.126 19.764 149.662 18.7223 149.043 17.8271C148.408 16.932 147.619 16.224 146.675 15.7031C145.747 15.166 144.657 14.8975 143.404 14.8975C142.15 14.8975 141.06 15.166 140.132 15.7031C139.204 16.224 138.431 16.932 137.813 17.8271C137.178 18.7223 136.706 19.764 136.397 20.9521C136.087 22.124 135.933 23.3529 135.933 24.6387V25.1758ZM165.215 38.0908V11.6748H169.268L169.585 15.5811C169.976 15.0277 170.399 14.5231 170.855 14.0674C171.327 13.5954 171.823 13.1885 172.344 12.8467C173.125 12.3258 173.972 11.9271 174.883 11.6504C175.811 11.3574 176.787 11.2028 177.813 11.1865C179.196 11.1865 180.449 11.3818 181.573 11.7725C182.712 12.1631 183.68 12.7734 184.478 13.6035C185.275 14.4336 185.886 15.4915 186.309 16.7773C186.748 18.0469 186.968 19.5605 186.968 21.3184V38.0908H182.451V21.416C182.451 20.2441 182.321 19.2513 182.061 18.4375C181.8 17.6237 181.418 16.9645 180.913 16.46C180.392 15.9554 179.758 15.5892 179.009 15.3613C178.277 15.1335 177.43 15.0195 176.47 15.0195C175.64 15.0195 174.867 15.1416 174.151 15.3857C173.434 15.6136 172.775 15.931 172.173 16.3379C171.685 16.696 171.229 17.111 170.806 17.583C170.399 18.055 170.041 18.5758 169.732 19.1455V38.0908H165.215ZM512.139 43.3887H489.873V38.0908H512.139V43.3887Z" fill="white"/>
<path d="M196.548 38.0908V2.54395H205.752C207.396 2.54395 208.934 2.7474 210.366 3.1543C211.799 3.54492 213.101 4.10645 214.273 4.83887C215.298 5.44108 216.21 6.18164 217.007 7.06055C217.821 7.92318 218.529 8.86719 219.131 9.89258C219.831 11.1458 220.368 12.5293 220.742 14.043C221.133 15.5566 221.328 17.168 221.328 18.877V21.8066C221.328 23.4505 221.149 25.0049 220.791 26.4697C220.433 27.9346 219.929 29.2773 219.278 30.498C218.659 31.5885 217.935 32.5977 217.105 33.5254C216.275 34.4368 215.363 35.2018 214.37 35.8203C213.215 36.5527 211.937 37.1143 210.537 37.5049C209.154 37.8955 207.673 38.0908 206.094 38.0908H196.548ZM203.457 8.11035V32.5732H206.094C206.94 32.5732 207.73 32.4674 208.462 32.2559C209.195 32.0443 209.862 31.735 210.464 31.3281C211.083 30.9049 211.636 30.3678 212.124 29.7168C212.629 29.0495 213.06 28.2764 213.418 27.3975C213.711 26.6325 213.931 25.7861 214.077 24.8584C214.24 23.9144 214.322 22.8971 214.322 21.8066V18.8281C214.322 17.8027 214.24 16.8343 214.077 15.9229C213.931 14.9951 213.711 14.1488 213.418 13.3838C213.06 12.4723 212.588 11.6585 212.002 10.9424C211.433 10.2262 210.765 9.6403 210 9.18457C209.414 8.84277 208.763 8.58236 208.047 8.40332C207.347 8.20801 206.582 8.11035 205.752 8.11035H203.457ZM242.285 38.5791C240.251 38.5791 238.404 38.2454 236.743 37.5781C235.083 36.9108 233.659 35.9993 232.471 34.8438C231.283 33.7044 230.363 32.3617 229.712 30.8154C229.077 29.2529 228.76 27.5846 228.76 25.8105V24.834C228.76 22.8158 229.077 20.9766 229.712 19.3164C230.347 17.64 231.234 16.1995 232.373 14.9951C233.513 13.7907 234.864 12.8548 236.426 12.1875C237.989 11.5202 239.689 11.1865 241.529 11.1865C243.433 11.1865 245.126 11.5039 246.607 12.1387C248.104 12.7572 249.374 13.6361 250.415 14.7754C251.441 15.9147 252.222 17.29 252.759 18.9014C253.296 20.4964 253.565 22.2624 253.565 24.1992V27.0801H235.645V27.1533C235.873 28.2113 236.166 29.0658 236.524 29.7168C236.882 30.3516 237.362 30.9294 237.964 31.4502C238.583 31.9873 239.291 32.4023 240.088 32.6953C240.886 32.9883 241.756 33.1348 242.7 33.1348C244.035 33.1348 245.329 32.8825 246.582 32.3779C247.836 31.8734 248.853 31.1165 249.634 30.1074L253.028 33.7695C252.165 34.9902 250.798 36.097 248.926 37.0898C247.054 38.0827 244.841 38.5791 242.285 38.5791ZM241.48 16.6797C240.715 16.6797 240.015 16.818 239.38 17.0947C238.745 17.3551 238.192 17.7376 237.72 18.2422C237.232 18.7467 236.825 19.349 236.499 20.0488C236.174 20.7487 235.93 21.5299 235.767 22.3926H246.9V21.8555C246.9 21.1393 246.769 20.4639 246.509 19.8291C246.249 19.1943 245.891 18.641 245.435 18.1689C244.979 17.7132 244.418 17.3551 243.75 17.0947C243.099 16.818 242.342 16.6797 241.48 16.6797ZM263.413 0.59082H278.184V32.5732H285.752V38.0908H263.413V32.5732H271.323V6.13281H263.413V0.59082ZM302.925 38.0908L292.842 11.6748H299.922L305.733 30.3027L306.099 32.1582L306.465 30.3027L312.251 11.6748H319.331L309.297 38.0908H302.925ZM339.873 38.5791C337.839 38.5791 335.991 38.2454 334.331 37.5781C332.671 36.9108 331.247 35.9993 330.059 34.8438C328.871 33.7044 327.951 32.3617 327.3 30.8154C326.665 29.2529 326.348 27.5846 326.348 25.8105V24.834C326.348 22.8158 326.665 20.9766 327.3 19.3164C327.935 17.64 328.822 16.1995 329.961 14.9951C331.101 13.7907 332.451 12.8548 334.014 12.1875C335.576 11.5202 337.277 11.1865 339.116 11.1865C341.021 11.1865 342.713 11.5039 344.195 12.1387C345.692 12.7572 346.962 13.6361 348.003 14.7754C349.029 15.9147 349.81 17.29 350.347 18.9014C350.884 20.4964 351.153 22.2624 351.153 24.1992V27.0801H333.233V27.1533C333.461 28.2113 333.753 29.0658 334.112 29.7168C334.47 30.3516 334.95 30.9294 335.552 31.4502C336.17 31.9873 336.878 32.4023 337.676 32.6953C338.474 32.9883 339.344 33.1348 340.288 33.1348C341.623 33.1348 342.917 32.8825 344.17 32.3779C345.423 31.8734 346.441 31.1165 347.222 30.1074L350.615 33.7695C349.753 34.9902 348.386 36.097 346.514 37.0898C344.642 38.0827 342.429 38.5791 339.873 38.5791ZM339.068 16.6797C338.303 16.6797 337.603 16.818 336.968 17.0947C336.333 17.3551 335.78 17.7376 335.308 18.2422C334.82 18.7467 334.413 19.349 334.087 20.0488C333.762 20.7487 333.517 21.5299 333.355 22.3926H344.488V21.8555C344.488 21.1393 344.357 20.4639 344.097 19.8291C343.837 19.1943 343.478 18.641 343.023 18.1689C342.567 17.7132 342.005 17.3551 341.338 17.0947C340.687 16.818 339.93 16.6797 339.068 16.6797ZM371.28 33.1592C371.947 33.1592 372.582 33.0615 373.184 32.8662C373.786 32.6709 374.315 32.3942 374.771 32.0361C375.226 31.6781 375.576 31.2467 375.821 30.7422C376.081 30.2376 376.195 29.6761 376.162 29.0576H382.559C382.591 30.4248 382.307 31.6943 381.704 32.8662C381.118 34.0381 380.313 35.0472 379.287 35.8936C378.262 36.7399 377.066 37.4072 375.698 37.8955C374.348 38.3675 372.915 38.6035 371.402 38.6035C369.351 38.6035 367.552 38.2617 366.006 37.5781C364.46 36.8783 363.174 35.9261 362.149 34.7217C361.107 33.5173 360.318 32.1094 359.781 30.498C359.26 28.8704 358.999 27.1289 358.999 25.2734V24.541C358.999 22.6855 359.26 20.9521 359.781 19.3408C360.301 17.7132 361.083 16.2972 362.124 15.0928C363.166 13.8883 364.452 12.9362 365.982 12.2363C367.528 11.5365 369.318 11.1865 371.353 11.1865C372.98 11.1865 374.486 11.4307 375.869 11.9189C377.253 12.4072 378.449 13.0908 379.458 13.9697C380.451 14.8649 381.224 15.9473 381.778 17.2168C382.331 18.4701 382.591 19.8779 382.559 21.4404H376.162C376.195 20.7894 376.097 20.1709 375.869 19.585C375.642 18.999 375.308 18.4945 374.868 18.0713C374.429 17.6481 373.9 17.3145 373.281 17.0703C372.663 16.8099 371.988 16.6797 371.255 16.6797C370.181 16.6797 369.294 16.8994 368.594 17.3389C367.894 17.7783 367.341 18.3643 366.934 19.0967C366.511 19.8291 366.21 20.6673 366.031 21.6113C365.868 22.5553 365.786 23.5319 365.786 24.541V25.2734C365.786 26.2988 365.868 27.2917 366.031 28.252C366.193 29.196 366.486 30.026 366.909 30.7422C367.316 31.4746 367.87 32.0605 368.57 32.5C369.286 32.9395 370.189 33.1592 371.28 33.1592ZM398.902 15.3125C399.243 14.8079 399.618 14.3441 400.025 13.9209C400.448 13.4814 400.887 13.099 401.343 12.7734C402.043 12.2689 402.816 11.8783 403.662 11.6016C404.509 11.3249 405.404 11.1865 406.348 11.1865C407.731 11.1865 409.001 11.3981 410.156 11.8213C411.312 12.2282 412.305 12.8711 413.135 13.75C413.965 14.6289 414.608 15.7601 415.064 17.1436C415.536 18.5107 415.772 20.1628 415.772 22.0996V38.0908H408.985V22.0508C408.985 21.1068 408.863 20.293 408.618 19.6094C408.391 18.9258 408.057 18.3724 407.617 17.9492C407.178 17.526 406.649 17.2168 406.031 17.0215C405.412 16.8099 404.712 16.7041 403.931 16.7041C403.329 16.7041 402.767 16.7611 402.246 16.875C401.726 16.9889 401.253 17.1598 400.83 17.3877C400.44 17.583 400.082 17.819 399.756 18.0957C399.447 18.3724 399.162 18.6816 398.902 19.0234V38.0908H392.115V0.59082H398.902V15.3125ZM426.45 11.6748H440.83V32.5732H447.984V38.0908H426.45V32.5732H433.97V17.2168H426.45V11.6748ZM433.482 4.91211C433.482 4.39128 433.571 3.91113 433.75 3.47168C433.946 3.01595 434.214 2.62533 434.556 2.2998C434.898 1.99056 435.305 1.74642 435.777 1.56738C436.265 1.38835 436.802 1.29883 437.388 1.29883C438.592 1.29883 439.545 1.64062 440.244 2.32422C440.961 2.99154 441.319 3.85417 441.319 4.91211C441.319 5.97005 440.961 6.84082 440.244 7.52441C439.545 8.19173 438.592 8.52539 437.388 8.52539C436.802 8.52539 436.265 8.43587 435.777 8.25684C435.305 8.0778 434.898 7.82552 434.556 7.5C434.214 7.19076 433.946 6.81641 433.75 6.37695C433.571 5.92122 433.482 5.43294 433.482 4.91211ZM456.245 24.6387C456.245 22.7181 456.522 20.944 457.075 19.3164C457.629 17.6725 458.443 16.2484 459.517 15.0439C460.575 13.8395 461.869 12.8955 463.399 12.2119C464.945 11.5283 466.711 11.1865 468.697 11.1865C470.682 11.1865 472.448 11.5283 473.994 12.2119C475.541 12.8955 476.851 13.8395 477.925 15.0439C478.983 16.2484 479.789 17.6725 480.342 19.3164C480.895 20.944 481.172 22.7181 481.172 24.6387V25.1514C481.172 27.0882 480.895 28.8786 480.342 30.5225C479.789 32.1501 478.983 33.5661 477.925 34.7705C476.867 35.9749 475.565 36.9189 474.019 37.6025C472.473 38.2699 470.715 38.6035 468.745 38.6035C466.76 38.6035 464.986 38.2699 463.423 37.6025C461.877 36.9189 460.575 35.9749 459.517 34.7705C458.443 33.5661 457.629 32.1501 457.075 30.5225C456.522 28.8786 456.245 27.0882 456.245 25.1514V24.6387ZM463.032 25.1514C463.032 26.2581 463.138 27.2998 463.35 28.2764C463.561 29.2367 463.895 30.0749 464.351 30.791C464.807 31.5234 465.392 32.1012 466.109 32.5244C466.841 32.9476 467.72 33.1592 468.745 33.1592C469.738 33.1592 470.593 32.9476 471.309 32.5244C472.025 32.1012 472.611 31.5234 473.067 30.791C473.506 30.0749 473.832 29.2367 474.043 28.2764C474.255 27.2998 474.361 26.2581 474.361 25.1514V24.6387C474.361 23.5645 474.255 22.5472 474.043 21.5869C473.832 20.6266 473.506 19.7803 473.067 19.0479C472.611 18.3154 472.025 17.7376 471.309 17.3145C470.593 16.8913 469.722 16.6797 468.697 16.6797C467.687 16.6797 466.825 16.8913 466.109 17.3145C465.392 17.7376 464.807 18.3154 464.351 19.0479C463.895 19.7803 463.561 20.6266 463.35 21.5869C463.138 22.5472 463.032 23.5645 463.032 24.6387V25.1514Z" fill="#7ED2FF"/>
</svg>
